<mxfile host="app.diagrams.net" modified="2022-05-05T04:25:53.862Z" agent="5.0 (Windows NT 10.0; Win64; x64) AppleWebKit/537.36 (KHTML, like Gecko) Chrome/96.0.4664.110 Safari/537.36" etag="8_yJB_PqXJ985eNelgN_" version="18.0.0" type="github">
  <diagram id="mcpEbDl2I-Vi5t5h9Fhs" name="Page-1">
    <mxGraphModel dx="865" dy="456" grid="1" gridSize="10" guides="1" tooltips="1" connect="1" arrows="1" fold="1" page="1" pageScale="1" pageWidth="827" pageHeight="1169" math="0" shadow="0">
      <root>
        <mxCell id="0" />
        <mxCell id="1" parent="0" />
        <mxCell id="2Y8aCSWhhYYzMZa2DL4W-1" value="&lt;font style=&quot;font-size: 14px;&quot;&gt;主页&lt;/font&gt;" style="rounded=1;whiteSpace=wrap;html=1;fillColor=#B2C9AB;strokeColor=#788AA3;fontColor=#46495D;" vertex="1" parent="1">
          <mxGeometry x="300" y="140" width="120" height="60" as="geometry" />
        </mxCell>
        <mxCell id="2Y8aCSWhhYYzMZa2DL4W-2" value="" style="strokeWidth=2;html=1;shape=mxgraph.flowchart.annotation_2;align=left;labelPosition=right;pointerEvents=1;direction=south;fillColor=#B2C9AB;strokeColor=#788AA3;fontColor=#46495D;" vertex="1" parent="1">
          <mxGeometry x="180" y="200" width="360" height="50" as="geometry" />
        </mxCell>
        <mxCell id="2Y8aCSWhhYYzMZa2DL4W-3" value="&lt;font style=&quot;font-size: 14px;&quot;&gt;首页信息&lt;/font&gt;" style="rounded=1;whiteSpace=wrap;html=1;direction=south;horizontal=1;verticalAlign=middle;align=center;fontFamily=Comic Sans MS;labelBorderColor=none;labelBackgroundColor=none;fillColor=#B2C9AB;strokeColor=#788AA3;fontColor=#46495D;" vertex="1" parent="1">
          <mxGeometry x="150" y="250" width="60" height="120" as="geometry" />
        </mxCell>
        <mxCell id="2Y8aCSWhhYYzMZa2DL4W-4" value="&lt;font style=&quot;font-size: 14px;&quot;&gt;主业务&lt;/font&gt;" style="rounded=1;whiteSpace=wrap;html=1;direction=south;horizontal=1;verticalAlign=middle;align=center;fontFamily=Comic Sans MS;labelBorderColor=none;labelBackgroundColor=none;fillColor=#B2C9AB;strokeColor=#788AA3;fontColor=#46495D;" vertex="1" parent="1">
          <mxGeometry x="270" y="250" width="60" height="120" as="geometry" />
        </mxCell>
        <mxCell id="2Y8aCSWhhYYzMZa2DL4W-5" value="&lt;font style=&quot;font-size: 14px;&quot;&gt;主业务&lt;/font&gt;" style="rounded=1;whiteSpace=wrap;html=1;direction=south;horizontal=1;verticalAlign=middle;align=center;fontFamily=Comic Sans MS;labelBorderColor=none;labelBackgroundColor=none;fillColor=#B2C9AB;strokeColor=#788AA3;fontColor=#46495D;" vertex="1" parent="1">
          <mxGeometry x="390" y="250" width="60" height="120" as="geometry" />
        </mxCell>
        <mxCell id="2Y8aCSWhhYYzMZa2DL4W-6" value="&lt;font style=&quot;font-size: 14px;&quot;&gt;主业务&lt;/font&gt;" style="rounded=1;whiteSpace=wrap;html=1;direction=south;horizontal=1;verticalAlign=middle;align=center;fontFamily=Comic Sans MS;labelBorderColor=none;labelBackgroundColor=none;fillColor=#B2C9AB;strokeColor=#788AA3;fontColor=#46495D;" vertex="1" parent="1">
          <mxGeometry x="510" y="250" width="60" height="120" as="geometry" />
        </mxCell>
        <mxCell id="2Y8aCSWhhYYzMZa2DL4W-7" value="" style="endArrow=none;html=1;rounded=1;sketch=0;fontColor=#46495D;strokeColor=#788AA3;fillColor=#B2C9AB;curved=0;entryX=0.495;entryY=0.667;entryDx=0;entryDy=0;entryPerimeter=0;strokeWidth=2;" edge="1" parent="1" target="2Y8aCSWhhYYzMZa2DL4W-2">
          <mxGeometry width="50" height="50" relative="1" as="geometry">
            <mxPoint x="300" y="250" as="sourcePoint" />
            <mxPoint x="300" y="230" as="targetPoint" />
          </mxGeometry>
        </mxCell>
        <mxCell id="2Y8aCSWhhYYzMZa2DL4W-11" value="" style="endArrow=none;html=1;rounded=1;sketch=0;fontColor=#46495D;strokeColor=#788AA3;fillColor=#B2C9AB;curved=0;entryX=0.495;entryY=0.667;entryDx=0;entryDy=0;entryPerimeter=0;fontSize=16;strokeWidth=2;" edge="1" parent="1">
          <mxGeometry width="50" height="50" relative="1" as="geometry">
            <mxPoint x="419.88" y="250" as="sourcePoint" />
            <mxPoint x="419.76" y="224.74999999999994" as="targetPoint" />
          </mxGeometry>
        </mxCell>
      </root>
    </mxGraphModel>
  </diagram>
</mxfile>
